# xmcd
#
# Track frame offsets: 
#        150
#        24584
#        36899
#        60718
#        75378
#        121077
#        170934
#        201152
#
# Disc length: 3713 seconds
#
# Revision: 0
# Processed by: cddbd v1.5.2PL0 Copyright (c) Steve Scherf et al.
# Submitted via: ExactAudioCopy v0.99pb5
#
DISCID=650e7f08
DTITLE=Iron Butterfly  - Concert and Documentary Europe 1997  FLAC
DYEAR=1900
DGENRE=
TTITLE0=Iron Butterfly Theme
TTITLE1=Unconscious Power
TTITLE2=In The Time Of Our Lives
TTITLE3=Flowers and  Beads
TTITLE4=Silent Screaming
TTITLE5=Bleu
TTITLE6=Whispers In The Wind
TTITLE7=In-A-Gadda-Da-Vida
EXTD=
EXTT0=
EXTT1=
EXTT2=
EXTT3=
EXTT4=
EXTT5=
EXTT6=
EXTT7=
PLAYORDER=
